<?xml version="1.0" encoding="UTF-8"?>
<svg version="1.1" xmlns="http://www.w3.org/2000/svg" width="736" height="552">
<path d="M0 0 C242.88 0 485.76 0 736 0 C736 182.16 736 364.32 736 552 C493.12 552 250.24 552 0 552 C0 369.84 0 187.68 0 0 Z " fill="#F1F1F2" transform="translate(0,0)"/>
<path d="M0 0 C1.35249797 -0.00274263 2.70499572 -0.00559955 4.05749321 -0.00856781 C10.40864022 -0.02218068 16.75977471 -0.03188111 23.11093527 -0.0357697 C30.3910215 -0.04025492 37.67092041 -0.05785045 44.95094973 -0.0867703 C50.61763411 -0.10848574 56.28426609 -0.11847898 61.95099157 -0.11981082 C65.3187641 -0.12085053 68.68621896 -0.12806751 72.05397224 -0.14463043 C75.81224726 -0.16180635 79.57007012 -0.15978315 83.32836914 -0.15332031 C84.96450668 -0.16714249 84.96450668 -0.16714249 86.63369751 -0.1812439 C101.82353619 -0.09998063 115.55917631 4.10643303 126.82421875 14.6015625 C137.92172858 28.08868211 140.12895544 44.32296823 140.09423828 61.19213867 C140.09686676 62.78434738 140.09686676 62.78434738 140.09954834 64.40872192 C140.10392688 67.89619615 140.1010419 71.38361907 140.09765625 74.87109375 C140.09833069 77.31333933 140.09930188 79.75558485 140.10055542 82.1978302 C140.1020272 87.31101115 140.09989547 92.4241746 140.09521484 97.53735352 C140.08953304 104.05884549 140.09279006 110.58029617 140.09878731 117.10178661 C140.1024199 122.14555669 140.10124173 127.18931716 140.09865952 132.23308754 C140.09799691 134.63580645 140.09879513 137.03852626 140.10113907 139.44124413 C140.13781727 187.62502422 140.13781727 187.62502422 125.33984375 203.515625 C113.68975106 214.51946068 99.35515485 217.67169542 83.78930664 217.59130859 C82.51950455 217.59656555 81.24970245 217.60182251 79.94142151 217.60723877 C76.49087465 217.62079449 73.04060001 217.61566262 69.59004903 217.60610151 C65.95752243 217.59844172 62.32501726 217.60556805 58.69248962 217.61026001 C52.59418609 217.61570003 46.49599196 217.608573 40.39770508 217.59423828 C33.3761168 217.57792243 26.35479007 217.58319952 19.33320814 217.5997175 C13.27507691 217.61339143 7.21702379 217.61522313 1.15888208 217.60740149 C-2.44637266 217.6027563 -6.05150505 217.60201197 -9.65675163 217.61201096 C-13.68139662 217.62239568 -17.70560057 217.6079475 -21.73022461 217.59130859 C-23.49103363 217.60041763 -23.49103363 217.60041763 -25.28741455 217.60971069 C-40.0655933 217.49721249 -53.29880309 213.39131936 -64.2578125 203.171875 C-72.27115805 194.29555377 -77.15726691 181.76213499 -77.16213989 169.82322693 C-77.16495972 168.75668381 -77.16777954 167.69014069 -77.17068481 166.59127808 C-77.16866058 165.43121246 -77.16663635 164.27114685 -77.16455078 163.07592773 C-77.16717926 161.23106026 -77.16717926 161.23106026 -77.16986084 159.34892273 C-77.17350556 155.98073025 -77.17265357 152.61259929 -77.16948175 149.24441028 C-77.16694311 145.70794771 -77.16930025 142.1714877 -77.17086792 138.63502502 C-77.17268689 132.68921439 -77.17029218 126.74341617 -77.16552734 120.79760742 C-77.16010277 113.95004283 -77.1618353 107.10250811 -77.16735375 100.25494426 C-77.17191364 94.35831144 -77.1725209 88.46168754 -77.16991508 82.56505352 C-77.1683658 79.05140989 -77.16812082 75.5377802 -77.17145157 72.0241375 C-77.17491596 68.09477485 -77.17009386 64.16544469 -77.16455078 60.23608398 C-77.16657501 59.09018799 -77.16859924 57.94429199 -77.17068481 56.76367188 C-77.13347806 42.43049947 -76.5586318 28.79973808 -67.03515625 17.203125 C-66.37515625 17.203125 -65.71515625 17.203125 -65.03515625 17.203125 C-64.80054688 16.6153125 -64.5659375 16.0275 -64.32421875 15.421875 C-60.25104847 8.41108495 -49.47553414 3.68325096 -42.03515625 1.203125 C-28.17817343 -0.60520363 -13.93828715 0.01991893 0 0 Z " fill="#0C65AC" transform="translate(336.03515625,166.796875)"/>
<path d="M0 0 C0 30.36 0 60.72 0 92 C-9.57 92 -19.14 92 -29 92 C-29 64.94 -29 37.88 -29 10 C-3 0 -3 0 0 0 Z " fill="#F5F9FC" transform="translate(419,230)"/>
<path d="M0 0 C9.71825316 1.94365063 18.77072054 6.38854282 28 10 C28 32.11 28 54.22 28 77 C18.76 77 9.52 77 0 77 C0 51.59 0 26.18 0 0 Z " fill="#F9FDFD" transform="translate(315,244)"/>
<path d="M0 0 C0 15.51 0 31.02 0 47 C-9.24 47 -18.48 47 -28 47 C-28 35.45 -28 23.9 -28 12 C-21.85783996 8.92891998 -15.78318398 5.92430995 -9.5 3.1875 C-8.79875 2.87619141 -8.0975 2.56488281 -7.375 2.24414062 C-2.24553571 0 -2.24553571 0 0 0 Z " fill="#FBFDFD" transform="translate(381,245)"/>
<path d="M0 0 C0.33 0 0.66 0 1 0 C1.02345997 14.23080858 1.04097639 28.46161411 1.05181217 42.69243813 C1.05701468 49.30147602 1.06406419 55.91050086 1.07543945 62.51953125 C1.08636229 68.90619407 1.09229663 75.29284439 1.09487724 81.67951584 C1.09671463 84.10735648 1.10030238 86.5351965 1.10573006 88.96303177 C1.17600003 121.71946656 1.17600003 121.71946656 -2 134 C-2.33 134 -2.66 134 -3 134 C-3 108.26 -3 82.52 -3 56 C-2.01 55.505 -2.01 55.505 -1 55 C-0.67 36.85 -0.34 18.7 0 0 Z " fill="#3979B5" transform="translate(475,217)"/>
<path d="M0 0 C0.99 0.33 1.98 0.66 3 1 C2.34 1 1.68 1 1 1 C1 26.41 1 51.82 1 78 C10.24 78 19.48 78 29 78 C29 55.89 29 33.78 29 11 C28.34 10.67 27.68 10.34 27 10 C28.32 10 29.64 10 31 10 C31.0462815 18.96192395 31.0818478 27.92380695 31.10362434 36.8858242 C31.11407446 41.04697253 31.12825592 45.20803926 31.15087891 49.36914062 C31.17256371 53.38266429 31.18455937 57.39610933 31.18975449 61.40968704 C31.19345811 62.94314436 31.20069011 64.47659724 31.21146011 66.01002121 C31.22591729 68.15309801 31.2279804 70.29584736 31.22705078 72.43896484 C31.231492 73.66030121 31.23593323 74.88163757 31.24050903 76.13998413 C31 79 31 79 29 81 C26.21850586 81.15112305 26.21850586 81.15112305 22.71484375 81.01171875 C21.46251953 80.96466797 20.21019531 80.91761719 18.91992188 80.86914062 C17.60572266 80.80919922 16.29152344 80.74925781 14.9375 80.6875 C13.61943359 80.63916016 12.30136719 80.59082031 10.94335938 80.54101562 C1.14209771 80.14209771 1.14209771 80.14209771 0 79 C-0.09500548 76.53555943 -0.12557985 74.09925374 -0.11352539 71.63452148 C-0.11367142 70.86384338 -0.11381744 70.09316528 -0.1139679 69.2991333 C-0.1132686 66.73975861 -0.10547545 64.1804558 -0.09765625 61.62109375 C-0.09579213 59.85132385 -0.0943682 58.08155344 -0.09336853 56.31178284 C-0.08954288 51.64448634 -0.0797122 46.97722077 -0.06866455 42.30993652 C-0.05845144 37.55102965 -0.05387113 32.79211779 -0.04882812 28.03320312 C-0.03808997 18.68878847 -0.02101299 9.3443968 0 0 Z " fill="#467CAB" transform="translate(314,243)"/>
<path d="M0 0 C0.33 0 0.66 0 1 0 C1 26.07 1 52.14 1 79 C10.24 79 19.48 79 29 79 C28.34 80.32 27.68 81.64 27 83 C24.17482275 83.46588547 21.70920439 83.69615501 18.875 83.75 C18.12089844 83.77964844 17.36679687 83.80929687 16.58984375 83.83984375 C14.72714047 83.91057932 12.86356245 83.95754983 11 84 C11 83.34 11 82.68 11 82 C9.5199159 82.11362262 8.04089926 82.24122908 6.5625 82.375 C5.32693359 82.47941406 5.32693359 82.47941406 4.06640625 82.5859375 C3.04353516 82.79089844 3.04353516 82.79089844 2 83 C1.505 83.99 1.505 83.99 1 85 C0.34 85 -0.32 85 -1 85 C-0.67 56.95 -0.34 28.9 0 0 Z " fill="#145DA1" transform="translate(389,243)"/>
<path d="M0 0 C5.57726547 -0.23733045 10.63093061 0.42153969 16 2 C16.33 2.33 16.66 2.66 17 3 C18.70825688 3.09622036 20.42052114 3.12187628 22.13148499 3.12025452 C23.24352798 3.12162918 24.35557098 3.12300385 25.50131226 3.12442017 C26.73201447 3.12082489 27.96271667 3.11722961 29.23071289 3.11352539 C31.1621389 3.11374443 31.1621389 3.11374443 33.13258362 3.1139679 C36.6737476 3.11425586 40.21487799 3.10835936 43.75603414 3.10139394 C47.45294988 3.09516017 51.14986631 3.09455658 54.8467865 3.09336853 C61.85203899 3.09025528 68.85727595 3.08204199 75.86252159 3.07201904 C83.83578876 3.0608577 91.80905665 3.0553474 99.78232968 3.05032361 C116.18822889 3.03985937 132.59411247 3.02226005 149 3 C145.75282047 4.92219729 143.33986468 5.25262521 139.58850098 5.26069641 C138.4896759 5.26778122 137.39085083 5.27486603 136.25872803 5.28216553 C135.05766418 5.27968811 133.85660034 5.27721069 132.61914062 5.2746582 C131.35036072 5.27976913 130.08158081 5.28488007 128.77435303 5.29014587 C125.29452701 5.30353744 121.81480961 5.3041137 118.33496284 5.30158257 C115.4230797 5.30051159 112.51121842 5.3054002 109.59933996 5.310188 C102.71985582 5.32128667 95.84042626 5.32172052 88.9609375 5.31567383 C81.88781523 5.30965177 74.81489278 5.32189897 67.7418046 5.3432439 C61.65410049 5.36093294 55.56645951 5.36684927 49.47873068 5.36360615 C45.84988575 5.36180256 42.2211829 5.36433499 38.59236145 5.37832069 C34.53345071 5.39337708 30.47493794 5.38386558 26.41601562 5.37231445 C25.23114563 5.37995819 24.04627563 5.38760193 22.82550049 5.39547729 C15.30733408 5.34845078 8.09989272 4.64463442 1 2 C0.67 1.34 0.34 0.68 0 0 Z " fill="#4574AB" transform="translate(288,379)"/>
<path d="M0 0 C0.66 0 1.32 0 2 0 C0.46683235 9.82621087 -6.43734888 17.91497456 -14 24 C-21.90598375 29.17100058 -29.66492558 31.12671884 -39 32 C-39 31.34 -39 30.68 -39 30 C-35.02705744 28.07760844 -31.42467765 27.63990974 -27.0859375 27.34375 C-24.70024095 27.09773501 -24.70024095 27.09773501 -22 25 C-21.01 25 -20.02 25 -19 25 C-19 24.34 -19 23.68 -19 23 C-16.625 20.375 -16.625 20.375 -14 18 C-13.34 18 -12.68 18 -12 18 C-11.67 16.68 -11.34 15.36 -11 14 C-10.01 14 -9.02 14 -8 14 C-7.67 12.68 -7.34 11.36 -7 10 C-5.68 9.67 -4.36 9.34 -3 9 C-3.061875 8.2575 -3.12375 7.515 -3.1875 6.75 C-2.96760006 3.52480092 -2.21747812 2.30276574 0 0 Z " fill="#205699" transform="translate(470,351)"/>
<path d="M0 0 C0 15.51 0 31.02 0 47 C-9.24 47 -18.48 47 -28 47 C-28.11479443 42.06894155 -28.21431398 37.1425119 -28.2746582 32.21118164 C-28.29980792 30.53393859 -28.33393259 28.8568052 -28.37719727 27.17993164 C-28.4378346 24.76941915 -28.46620284 22.36035448 -28.48828125 19.94921875 C-28.51408768 19.19912033 -28.5398941 18.44902191 -28.56648254 17.67619324 C-28.56762695 15.5534668 -28.56762695 15.5534668 -28 12 C-25.58142695 9.99233645 -24.16303722 9 -21 9 C-21 9.66 -21 10.32 -21 11 C-22 12 -23 13 -24 14 C-24.33 14.99 -24.66 15.98 -25 17 C-25.66 17 -26.32 17 -27 17 C-27 26.57 -27 36.14 -27 46 C-18.42 46 -9.84 46 -1 46 C-1 31.48 -1 16.96 -1 2 C-1.99 1.67 -2.98 1.34 -4 1 C-2 0 -2 0 0 0 Z " fill="#D1EEF9" transform="translate(381,245)"/>
<path d="M0 0 C-4.21269172 2.51549218 -8.22897078 2.37054121 -13.02734375 2.55859375 C-16.35529274 3.052757 -18.22163248 4.15400202 -21 6 C-24.22498296 7.22549353 -26.54522558 8 -30 8 C-33.99353389 8.55083226 -36.75559876 10.71417185 -40 13 C-40.66 12.67 -41.32 12.34 -42 12 C-27.68482236 2.47438647 -17.27929416 -0.34558588 0 0 Z " fill="#1E73A6" transform="translate(316,167)"/>
<path d="M0 0 C2.89364979 5.67833369 4.2315274 10.80554651 4.65625 17.14453125 C4.82640625 18.06298828 4.82640625 18.06298828 5 19 C5.66 19.33 6.32 19.66 7 20 C7.33333333 21.33333333 7.66666667 22.66666667 8 24 C8.66 24.33 9.32 24.66 10 25 C10 24.01 10 23.02 10 22 C10.66 22 11.32 22 12 22 C12 24.97 12 27.94 12 31 C5.459955 27.7299775 3.22585644 21.12036185 0.625 14.5 C-0.24114767 9.64957304 -0.15990278 4.91256859 0 0 Z " fill="#285E9A" transform="translate(260,336)"/>
<path d="M0 0 C0.33 0 0.66 0 1 0 C1.21142154 5.81409231 1.03559504 11.48103376 -1 17 C-1.96860902 18.03043513 -2.96893503 19.03206146 -4 20 C-5.04622875 21.97620986 -6.05439935 23.9737129 -7 26 C-7.66 26 -8.32 26 -9 26 C-9.33 26.99 -9.66 27.98 -10 29 C-11.65 29.33 -13.3 29.66 -15 30 C-14.154375 29.13375 -13.30875 28.2675 -12.4375 27.375 C-5.8883293 19.72133733 -1.53701464 9.90520547 0 0 Z " fill="#D5E9F8" transform="translate(474,342)"/>
<path d="M0 0 C9.24 0 18.48 0 28 0 C28 0.33 28 0.66 28 1 C24.04 1 20.08 1 16 1 C15.67 1.99 15.34 2.98 15 4 C10.05 4 5.1 4 0 4 C0.66 3.34 1.32 2.68 2 2 C1.34 1.34 0.68 0.68 0 0 Z " fill="#1F65A6" transform="translate(353,292)"/>
<path d="M0 0 C2.69082872 0.17635452 5.32851446 0.61835921 8 1 C8 1.33 8 1.66 8 2 C7.2265625 2.15855469 6.453125 2.31710938 5.65625 2.48046875 C-0.45141588 3.84864638 -5.27522021 5.28898384 -10.28125 9.109375 C-12 10 -12 10 -14.21875 9.640625 C-14.8065625 9.42921875 -15.394375 9.2178125 -16 9 C-15.67 8.01 -15.34 7.02 -15 6 C-13.68 6 -12.36 6 -11 6 C-11 5.34 -11 4.68 -11 4 C-10.28972656 3.79503906 -9.57945312 3.59007812 -8.84765625 3.37890625 C-7.92855469 3.10949219 -7.00945312 2.84007812 -6.0625 2.5625 C-5.14597656 2.29566406 -4.22945313 2.02882812 -3.28515625 1.75390625 C-1.0597507 1.20973949 -1.0597507 1.20973949 0 0 Z " fill="#E2F4FC" transform="translate(292,166)"/>
<path d="M0 0 C0 0.66 0 1.32 0 2 C-1 3 -2 4 -3 5 C-3.33 5.99 -3.66 6.98 -4 8 C-4.66 8 -5.32 8 -6 8 C-6 17.57 -6 27.14 -6 37 C-6.33 37 -6.66 37 -7 37 C-7.12358454 32.21290532 -7.21432771 27.42673819 -7.2746582 22.63842773 C-7.29980568 21.0096825 -7.33392878 19.38105015 -7.37719727 17.75268555 C-7.4378455 15.41166366 -7.46620476 13.07213269 -7.48828125 10.73046875 C-7.51408768 10.00224411 -7.5398941 9.27401947 -7.56648254 8.52372742 C-7.56762695 6.46166992 -7.56762695 6.46166992 -7 3 C-4.58420924 1.0083763 -3.15288566 0 0 0 Z " fill="#E0F5FD" transform="translate(360,254)"/>
<path d="M0 0 C1.65 0 3.3 0 5 0 C4.67 1.32 4.34 2.64 4 4 C5.093125 4.639375 6.18625 5.27875 7.3125 5.9375 C8.23482422 6.47697266 8.23482422 6.47697266 9.17578125 7.02734375 C11.13819555 8.13901247 11.13819555 8.13901247 14 9 C12.359375 10.2109375 12.359375 10.2109375 10 11 C7.203125 9.6640625 7.203125 9.6640625 4.25 7.625 C3.26515625 6.95726562 2.2803125 6.28953125 1.265625 5.6015625 C0.51796875 5.07304687 -0.2296875 4.54453125 -1 4 C-0.67 2.68 -0.34 1.36 0 0 Z " fill="#2C5F9C" transform="translate(275,368)"/>
<path d="M0 0 C0.66 0.33 1.32 0.66 2 1 C2 1.66 2 2.32 2 3 C7.445 2.505 7.445 2.505 13 2 C9.52718912 4.60460816 6.89330549 6.02699183 2.9375 7.625 C1.89464844 8.05039063 0.85179687 8.47578125 -0.22265625 8.9140625 C-2.12953648 9.65964999 -4.05760879 10.35253626 -6 11 C-6 10.34 -6 9.68 -6 9 C-5.34 9 -4.68 9 -4 9 C-4 8.34 -4 7.68 -4 7 C-2.02 6.34 -0.04 5.68 2 5 C1.01 4.34 0.02 3.68 -1 3 C-0.67 2.01 -0.34 1.02 0 0 Z " fill="#236BA1" transform="translate(359,246)"/>
<path d="M0 0 C0.33 0.66 0.66 1.32 1 2 C0.566875 2.8353125 0.566875 2.8353125 0.125 3.6875 C-1.2056372 6.0921661 -1.2056372 6.0921661 -1.375 9.4375 C-2.07496851 13.42732051 -3.16284774 15.16284774 -6 18 C-6.66 18 -7.32 18 -8 18 C-6.70949166 11.03125494 -3.85189664 5.91108667 0 0 Z " fill="#2075A7" transform="translate(269,184)"/>
<path d="M0 0 C5.98511371 0.34302035 10.75117306 0.82307843 16 4 C13.25521748 5.37239126 11.12416531 4.67824021 8.17578125 4.2578125 C5.09575448 3.89285421 2.09868688 3.93544402 -1 4 C-0.67 2.68 -0.34 1.36 0 0 Z " fill="#1176B3" transform="translate(433,168)"/>
<path d="M0 0 C1.44801722 2.89603444 2.33959894 4.8703423 3.0703125 7.890625 C3.33134766 8.95410156 3.33134766 8.95410156 3.59765625 10.0390625 C3.77167969 10.76867187 3.94570313 11.49828125 4.125 12.25 C4.30675781 12.99507813 4.48851562 13.74015625 4.67578125 14.5078125 C5.12147499 16.3375026 5.56131959 18.16861575 6 20 C5.01 19.67 4.02 19.34 3 19 C2.67 17.35 2.34 15.7 2 14 C1.34 14 0.68 14 0 14 C0 9.38 0 4.76 0 0 Z " fill="#D1E4F4" transform="translate(258,338)"/>
<path d="M0 0 C0.99 0 1.98 0 3 0 C2.566875 1.08087891 2.566875 1.08087891 2.125 2.18359375 C1.413027 3.96599838 0.70427949 5.74969771 0 7.53515625 C-0.33 8.36917969 -0.66 9.20320312 -1 10.0625 C-1.33 10.89910156 -1.66 11.73570312 -2 12.59765625 C-2.91192449 14.78841236 -3.91010437 16.89319283 -5 19 C-6.32704651 15.98398521 -5.95963661 14.89505519 -4.75 11.75 C-4.47027344 11.15574219 -4.19054687 10.56148437 -3.90234375 9.94921875 C-2.40217951 6.70860423 -1.23403133 3.3495136 0 0 Z " fill="#D6EEFA" transform="translate(264,187)"/>
<path d="M0 0 C0.33 0.99 0.66 1.98 1 3 C0.67 3.33 0.34 3.66 0 4 C-1.99609375 3.9140625 -1.99609375 3.9140625 -4.4375 3.625 C-5.24058594 3.53476562 -6.04367187 3.44453125 -6.87109375 3.3515625 C-9 3 -9 3 -11 2 C-11 1.34 -11 0.68 -11 0 C-9.54263913 -0.19491452 -8.08405407 -0.38069358 -6.625 -0.5625 C-5.81289063 -0.66691406 -5.00078125 -0.77132813 -4.1640625 -0.87890625 C-2 -1 -2 -1 0 0 Z " fill="#145BA8" transform="translate(304,377)"/>
<path d="M0 0 C1.98 0 3.96 0 6 0 C6.33 1.32 6.66 2.64 7 4 C5.02 4.99 5.02 4.99 3 6 C3 6.66 3 7.32 3 8 C2.34 8 1.68 8 1 8 C-0.35439668 5.29120665 -0.06501451 2.99066732 0 0 Z " fill="#1459A8" transform="translate(448,368)"/>
<path d="M0 0 C0.66 0 1.32 0 2 0 C1.42176904 4.06225548 0.10882263 6.84762346 -2.0625 10.3125 C-2.61035156 11.19550781 -3.15820312 12.07851563 -3.72265625 12.98828125 C-4.14417969 13.65214844 -4.56570313 14.31601562 -5 15 C-6.125 11.25 -6.125 11.25 -5 9 C-4.34 9 -3.68 9 -3 9 C-3.061875 8.2575 -3.12375 7.515 -3.1875 6.75 C-2.96760006 3.52480092 -2.21747812 2.30276574 0 0 Z " fill="#2A5E95" transform="translate(470,351)"/>
<path d="M0 0 C5.48972839 -0.23360546 10.76943854 0.18165031 16 2 C16.33 2.66 16.66 3.32 17 4 C10.48208608 4.3540919 5.82478551 4.03901852 0 1 C0 0.67 0 0.34 0 0 Z " fill="#336399" transform="translate(288,379)"/>
<path d="M0 0 C4.17651854 1.74094878 5.43731751 3.76566288 7.31640625 7.7578125 C8.43885731 11.43945198 7.79867581 14.27284623 7 18 C5.3622692 14.89345234 4.12012324 11.74254975 2.9375 8.4375 C2.59589844 7.48746094 2.25429688 6.53742188 1.90234375 5.55859375 C1.25100169 3.71171476 0.6192906 1.8578718 0 0 Z " fill="#CCEBF6" transform="translate(468,190)"/>
<path d="M0 0 C1.32 0 2.64 0 4 0 C4.33 1.32 4.66 2.64 5 4 C6.32 4.33 7.64 4.66 9 5 C7.35830472 7.02054804 5.69088222 9.02043058 4 11 C3.67 11 3.34 11 3 11 C3 8.69 3 6.38 3 4 C2.01 4 1.02 4 0 4 C0 2.68 0 1.36 0 0 Z " fill="#F1F2F9" transform="translate(264,176)"/>
<path d="M0 0 C0.33 0.99 0.66 1.98 1 3 C-0.32 2.67 -1.64 2.34 -3 2 C-3 2.66 -3 3.32 -3 4 C-7.49656104 6.24828052 -11.07872966 6.16682272 -16 6 C-15 4 -15 4 -12.12890625 2.9296875 C-10.95199219 2.58164062 -9.77507812 2.23359375 -8.5625 1.875 C-7.38816406 1.52179688 -6.21382813 1.16859375 -5.00390625 0.8046875 C-2 0 -2 0 0 0 Z " fill="#D3E5F4" transform="translate(448,379)"/>
<path d="M0 0 C4.74018901 1.83491188 9.36413251 3.91941459 14 6 C14 6.33 14 6.66 14 7 C5.70552147 7.1595092 5.70552147 7.1595092 3 6 C0 2.67857143 0 2.67857143 0 0 Z " fill="#D9ECF9" transform="translate(278,375)"/>
<path d="M0 0 C0.66 0.33 1.32 0.66 2 1 C1.01 2.485 1.01 2.485 0 4 C0.33 4.99 0.66 5.98 1 7 C-1.64 7.33 -4.28 7.66 -7 8 C-7.33 7.01 -7.66 6.02 -8 5 C-7.236875 4.54625 -6.47375 4.0925 -5.6875 3.625 C-3.76367186 2.46175508 -1.87058776 1.2470585 0 0 Z " fill="#0D71B3" transform="translate(279,177)"/>
<path d="M0 0 C0.66 0.99 1.32 1.98 2 3 C-1.37097383 4.49821059 -3.20442119 5 -7 5 C-7 3.68 -7 2.36 -7 1 C-4.46578263 -0.26710868 -2.80561762 -0.28056176 0 0 Z " fill="#1466A3" transform="translate(377,243)"/>
<path d="M0 0 C5.28 1.98 10.56 3.96 16 6 C16 6.66 16 7.32 16 8 C15.01 8 14.02 8 13 8 C13 7.34 13 6.68 13 6 C12.01 6.12375 12.01 6.12375 11 6.25 C6.78756306 5.89896359 3.65289323 4.03039227 0 2 C0 1.34 0 0.68 0 0 Z " fill="#DDF5FC" transform="translate(327,248)"/>
<path d="M0 0 C0.66 0 1.32 0 2 0 C1.67 1.65 1.34 3.3 1 5 C0.34 5 -0.32 5 -1 5 C-1.33 5.99 -1.66 6.98 -2 8 C-3.65 8.33 -5.3 8.66 -7 9 C-6.57847656 8.51789063 -6.15695312 8.03578125 -5.72265625 7.5390625 C-5.17480469 6.90742188 -4.62695312 6.27578125 -4.0625 5.625 C-3.51722656 4.99851562 -2.97195313 4.37203125 -2.41015625 3.7265625 C-0.93041376 2.04367666 -0.93041376 2.04367666 0 0 Z " fill="#CBE0EF" transform="translate(466,363)"/>
<path d="M0 0 C2.24027294 2.88035092 4.16172132 5.84866512 6 9 C4.125 9.625 4.125 9.625 2 10 C0 8 0 8 -0.1953125 6.0546875 C-0.13020833 4.03645833 -0.06510417 2.01822917 0 0 Z " fill="#D9E7F3" transform="translate(264,358)"/>
<path d="M0 0 C-4.05808065 2.7053871 -8.04889399 5 -13 5 C-13 4.01 -13 3.02 -13 2 C-8.46298506 0.54815522 -4.81938524 -0.23509196 0 0 Z " fill="#1B699C" transform="translate(406,234)"/>
<path d="M0 0 C0.66 0 1.32 0 2 0 C2.33 3.96 2.66 7.92 3 12 C-0.91309271 8.08690729 -0.65319567 6.37546719 -1 1 C-0.67 0.67 -0.34 0.34 0 0 Z " fill="#115FA5" transform="translate(262,327)"/>
<path d="M0 0 C-6.4 4.06153846 -6.4 4.06153846 -9.4375 3.75 C-9.953125 3.5025 -10.46875 3.255 -11 3 C-10.67 2.01 -10.34 1.02 -10 0 C-6.33694766 -0.74926071 -3.57644848 -1.2380014 0 0 Z " fill="#CEE9F5" transform="translate(287,172)"/>
<path d="M0 0 C0.515625 0.2475 1.03125 0.495 1.5625 0.75 C1.5625 1.41 1.5625 2.07 1.5625 2.75 C-5.86607143 5.17857143 -5.86607143 5.17857143 -9.4375 3.75 C-3.0375 -0.31153846 -3.0375 -0.31153846 0 0 Z " fill="#0071B4" transform="translate(302.4375,169.25)"/>
<path d="M0 0 C2.31 0.66 4.62 1.32 7 2 C6.01 2.33 5.02 2.66 4 3 C4 3.66 4 4.32 4 5 C2.35 5 0.7 5 -1 5 C-0.67 3.35 -0.34 1.7 0 0 Z " fill="#0073BB" transform="translate(439,171)"/>
<path d="M0 0 C0 2.83967231 -0.40267181 5.23735711 -1 8 C-1.99 8.33 -2.98 8.66 -4 9 C-3.67 6.36 -3.34 3.72 -3 1 C-2.01 0.67 -1.02 0.34 0 0 Z " fill="#115AA8" transform="translate(468,352)"/>
<path d="M0 0 C1.65 0 3.3 0 5 0 C4.625 2.9375 4.625 2.9375 4 6 C3.01 6.495 3.01 6.495 2 7 C1.34 6.34 0.68 5.68 0 5 C0.66 4.67 1.32 4.34 2 4 C1.34 2.68 0.68 1.36 0 0 Z " fill="#0B72BB" transform="translate(417,224)"/>
<path d="M0 0 C4.05606165 0.46800711 7.46588679 0.87953208 11 3 C7.85135005 4.57432497 5.35512575 3.71895552 2 3 C1.34 2.01 0.68 1.02 0 0 Z " fill="#2C7AA7" transform="translate(438,169)"/>
<path d="M0 0 C1.125 3.75 1.125 3.75 0 6 C-1.65 5.67 -3.3 5.34 -5 5 C-3.35 3.35 -1.7 1.7 0 0 Z " fill="#D9ECF1" transform="translate(458,372)"/>
<path d="M0 0 C0 0.66 0 1.32 0 2 C-3.96 3.98 -3.96 3.98 -8 6 C-8 5.01 -8 4.02 -8 3 C-7.01 3 -6.02 3 -5 3 C-5 2.34 -5 1.68 -5 1 C-3 0 -3 0 0 0 Z " fill="#315D97" transform="translate(456,373)"/>
<path d="M0 0 C0.66 0 1.32 0 2 0 C2 2.97 2 5.94 2 9 C1.01 8.67 0.02 8.34 -1 8 C-0.67 5.36 -0.34 2.72 0 0 Z " fill="#175998" transform="translate(270,358)"/>
<path d="M0 0 C0.66 0 1.32 0 2 0 C2 0.66 2 1.32 2 2 C2.66 2 3.32 2 4 2 C3.34 3.98 2.68 5.96 2 8 C1.34 8 0.68 8 0 8 C-0.38063221 5.6739143 -0.71269945 3.33944736 -1 1 C-0.67 0.67 -0.34 0.34 0 0 Z " fill="#006FAF" transform="translate(448,184)"/>
<path d="M0 0 C1.65 0 3.3 0 5 0 C5.33 1.65 5.66 3.3 6 5 C4.35 4.67 2.7 4.34 1 4 C0.67 2.68 0.34 1.36 0 0 Z " fill="#0F5DA5" transform="translate(264,352)"/>
<path d="M0 0 C0.99 0 1.98 0 3 0 C2.34 1.65 1.68 3.3 1 5 C-0.65 5 -2.3 5 -4 5 C-2.1875 2.5 -2.1875 2.5 0 0 Z " fill="#165DA4" transform="translate(420,322)"/>
<path d="M0 0 C0.99 0.99 1.98 1.98 3 3 C2.01 4.485 2.01 4.485 1 6 C0.01 5.67 -0.98 5.34 -2 5 C-2 3.68 -2 2.36 -2 1 C-1.34 0.67 -0.68 0.34 0 0 Z " fill="#056BB6" transform="translate(354,246)"/>
<path d="M0 0 C5.78461538 4.43076923 5.78461538 4.43076923 6.875 7.3125 C6.936875 8.1478125 6.936875 8.1478125 7 9 C6.01 8.67 5.02 8.34 4 8 C3.67 7.01 3.34 6.02 3 5 C2.01 4.34 1.02 3.68 0 3 C0 2.01 0 1.02 0 0 Z " fill="#EDF6FB" transform="translate(269,367)"/>
<path d="M0 0 C0.99 0 1.98 0 3 0 C4 3 4 3 3.0625 5.1875 C2.5365625 6.0846875 2.5365625 6.0846875 2 7 C2 6.34 2 5.68 2 5 C1.34 5 0.68 5 0 5 C-0.5625 3.0625 -0.5625 3.0625 -1 1 C-0.67 0.67 -0.34 0.34 0 0 Z " fill="#1860AE" transform="translate(385,321)"/>
<path d="M0 0 C1.98 0.495 1.98 0.495 4 1 C4.33 2.32 4.66 3.64 5 5 C3.02 4.34 1.04 3.68 -1 3 C-0.67 2.01 -0.34 1.02 0 0 Z " fill="#046CBA" transform="translate(374,239)"/>
<path d="M0 0 C1.32 0.33 2.64 0.66 4 1 C2.35 2.98 0.7 4.96 -1 7 C-2 4 -2 4 -1.0625 1.8125 C-0.5365625 0.9153125 -0.5365625 0.9153125 0 0 Z " fill="#D1EFFB" transform="translate(269,180)"/>
<path d="M0 0 C0.99 0 1.98 0 3 0 C3 1.65 3 3.3 3 5 C1.68 4.67 0.36 4.34 -1 4 C-0.67 2.68 -0.34 1.36 0 0 Z " fill="#FBEEEB" transform="translate(264,180)"/>
<path d="M0 0 C1.65 0 3.3 0 5 0 C4.67 1.32 4.34 2.64 4 4 C2.35 3.67 0.7 3.34 -1 3 C-0.67 2.01 -0.34 1.02 0 0 Z " fill="#1B579B" transform="translate(275,368)"/>
<path d="M0 0 C2.12046792 3.53411321 2.53199289 6.94393835 3 11 C2.67 10.01 2.34 9.02 2 8 C1.34 8 0.68 8 0 8 C0 5.36 0 2.72 0 0 Z " fill="#175897" transform="translate(260,336)"/>
</svg>
